<?xml version="1.0" encoding="utf-8"?>
<!-- Generator: Adobe Illustrator 27.5.0, SVG Export Plug-In . SVG Version: 6.00 Build 0)  -->
<svg version="1.1" xmlns="http://www.w3.org/2000/svg" xmlns:xlink="http://www.w3.org/1999/xlink" x="0px" y="0px"
	 viewBox="0 0 2500 2500" style="enable-background:new 0 0 2500 2500;" xml:space="preserve">
<g id="Background">
	<rect style="fill:#FFFFFF;" width="2500" height="2500"/>
</g>
<g id="Illustration">
	<g id="Order_processed_1_">
		<circle style="fill:#F2E6DC;" cx="1250" cy="1250" r="915"/>
		<g>
			<g>
				<rect x="569.744" y="434.761" style="fill:#F7F1EB;" width="598.763" height="1129.606"/>
				<path style="fill:#363E44;" d="M1142.341,1633.275H591.769c-38.498,0-69.82-31.322-69.82-69.821V424.937
					c0-38.499,31.322-69.821,69.82-69.821h550.572c38.498,0,69.82,31.322,69.82,69.821v1138.516
					C1212.161,1601.953,1180.839,1633.275,1142.341,1633.275z M591.769,359.526c-36.067,0-65.41,29.343-65.41,65.411v1138.516
					c0,36.068,29.343,65.411,65.41,65.411h550.572c36.067,0,65.41-29.344,65.41-65.411V424.937c0-36.068-29.343-65.411-65.41-65.411
					H591.769z"/>
			</g>
			<g>
				<path style="fill:#FFFFFF;" d="M671.403,633.006h-0.946c-18.291,0-33.119-14.828-33.119-33.118V434.761h67.183v165.127
					C704.522,618.179,689.694,633.006,671.403,633.006z"/>
				<path style="fill:#D87355;" d="M604.014,633.006h-0.946c-18.291,0-33.118-14.828-33.118-33.118V434.761h67.183v165.127
					C637.132,618.179,622.305,633.006,604.014,633.006z"/>
				<path style="fill:#D87355;" d="M737.687,633.006h-0.946c-18.291,0-33.119-14.828-33.119-33.118V434.761h67.183v165.127
					C770.805,618.179,755.978,633.007,737.687,633.006z"/>
				<path style="fill:#FFFFFF;" d="M803.97,633.006h-0.946c-18.291,0-33.118-14.828-33.118-33.118V434.761h67.183v165.127
					C837.089,618.179,822.261,633.006,803.97,633.006z"/>
				<path style="fill:#D87355;" d="M870.254,633.006h-0.946c-18.291,0-33.119-14.828-33.119-33.118V434.761h67.183v165.127
					C903.373,618.179,888.545,633.006,870.254,633.006z"/>
				<path style="fill:#FFFFFF;" d="M936.538,633.006h-0.946c-18.291,0-33.118-14.828-33.118-33.118V434.761h67.183v165.127
					C969.656,618.179,954.829,633.006,936.538,633.006z"/>
				<path style="fill:#D87355;" d="M1002.821,633.006h-0.946c-18.291,0-33.119-14.828-33.119-33.118V434.761h67.183v165.127
					C1035.94,618.179,1021.112,633.006,1002.821,633.006z"/>
				<path style="fill:#FFFFFF;" d="M1069.105,633.006h-0.946c-18.291,0-33.119-14.828-33.119-33.118V434.761h67.183v165.127
					C1102.224,618.179,1087.396,633.006,1069.105,633.006z"/>
				<path style="fill:#D87355;" d="M1135.389,633.006h-0.946c-18.291,0-33.119-14.828-33.119-33.118V434.761h67.183v165.127
					C1168.507,618.179,1153.679,633.006,1135.389,633.006z"/>
				<path style="fill:#D87355;" d="M1168.275,436.966H569.512c-1.219,0-2.205-0.987-2.205-2.205c0-1.218,0.986-2.205,2.205-2.205
					h598.763c1.219,0,2.205,0.987,2.205,2.205C1170.48,435.979,1169.494,436.966,1168.275,436.966z"/>
			</g>
			<g>
				<path style="fill:#D3BBA3;" d="M1046.397,1466.446H689.405c-1.219,0-2.205-0.987-2.205-2.205v-356.828
					c0-1.218,0.986-2.205,2.205-2.205h356.991c1.219,0,2.205,0.987,2.205,2.205v356.828
					C1048.601,1465.459,1047.615,1466.446,1046.397,1466.446z M691.61,1462.037h352.582v-352.418H691.61V1462.037z"/>
				<polygon style="fill:#8B865C;" points="848.753,1410.298 736.984,1308.682 771.514,1266.123 842.38,1322.752 953.578,1161.358 
					998.818,1192.497 				"/>
			</g>
			<g>
				<g>
					<g>
						<g>
							<path style="fill:#363E44;" d="M770.486,954.216c-1.019,0-1.916-0.704-2.147-1.713l-46.601-203.854l-57.519,0.548
								c-0.009,0-0.015,0-0.021,0c-1.208,0-2.194-0.973-2.205-2.184c-0.011-1.218,0.967-2.214,2.183-2.226l59.296-0.565
								c0.009,0,0.015,0,0.021,0c1.027,0,1.921,0.71,2.149,1.713l46.568,203.718l209.863-17.655l-0.108-132.945l-63.246,0.052
								c-1.216,0-2.207-0.986-2.207-2.203c0-1.218,0.986-2.205,2.203-2.207l65.451-0.053c1.216,0,2.207,0.986,2.207,2.203
								l0.112,137.178c0,1.146-0.876,2.102-2.02,2.199l-213.792,17.985C770.611,954.214,770.549,954.216,770.486,954.216z"/>
							<path style="fill:#363E44;" d="M928.719,940.905c-1.148,0-2.114-0.888-2.196-2.05l-9.859-139.654l-181.596,0.055
								c-1.216,0.001-2.205-0.987-2.205-2.204s0.986-2.205,2.205-2.205l183.65-0.055c1.156,0,2.119,0.895,2.198,2.05l10.003,141.705
								c0.086,1.214-0.829,2.269-2.043,2.354C928.824,940.904,928.77,940.905,928.719,940.905z"/>
							<path style="fill:#363E44;" d="M752.135,1048.506c-9.799,0-19.012-3.812-25.948-10.736
								c-6.944-6.932-10.77-16.151-10.779-25.962c-0.015-20.252,16.448-36.741,36.698-36.758c0.011,0,0.022,0,0.032,0
								c9.797,0,19.012,3.812,25.948,10.736c6.942,6.932,10.768,16.151,10.776,25.962c0.009,9.81-3.805,19.037-10.735,25.979
								c-6.931,6.943-16.151,10.771-25.961,10.779C752.156,1048.506,752.146,1048.506,752.135,1048.506z M752.137,979.459
								c-0.009,0-0.017,0-0.026,0c-17.822,0.015-32.308,14.525-32.293,32.345c0.006,8.633,3.374,16.746,9.485,22.845
								c6.102,6.092,14.211,9.446,22.834,9.447c0.009,0,0.017,0,0.026,0c8.632-0.007,16.745-3.376,22.845-9.485
								s9.454-14.228,9.446-22.86c-0.006-8.633-3.374-16.746-9.485-22.845C768.867,982.814,760.76,979.459,752.137,979.459z"/>
							<path style="fill:#363E44;" d="M1001.493,1048.303c-9.799,0-19.012-3.812-25.948-10.736
								c-6.944-6.932-10.77-16.151-10.779-25.962c-0.009-9.81,3.805-19.036,10.736-25.979c6.931-6.943,16.151-10.771,25.96-10.779
								c0.011,0,0.021,0,0.032,0c9.799,0,19.012,3.812,25.948,10.736c6.944,6.932,10.77,16.151,10.779,25.962
								c0.009,9.81-3.805,19.037-10.736,25.979c-6.931,6.943-16.151,10.771-25.96,10.779
								C1001.514,1048.303,1001.503,1048.303,1001.493,1048.303z M1001.493,979.256c-0.009,0-0.017,0-0.026,0
								c-8.632,0.007-16.745,3.376-22.845,9.485s-9.454,14.228-9.446,22.86c0.006,8.633,3.374,16.746,9.485,22.845
								c6.102,6.092,14.211,9.446,22.834,9.447c0.009,0,0.017,0,0.026,0c8.632-0.007,16.745-3.376,22.845-9.485
								c6.1-6.109,9.454-14.228,9.446-22.86c-0.006-8.633-3.374-16.746-9.485-22.845
								C1018.225,982.611,1010.116,979.256,1001.493,979.256z"/>
							<path style="fill:#363E44;" d="M786.661,1013.714c-1.217,0-2.207-0.986-2.207-2.203c0-1.218,0.986-2.205,2.203-2.206
								l180.042-0.146c1.217,0,2.207,0.986,2.207,2.203c0,1.218-0.986,2.205-2.203,2.206L786.661,1013.714z"/>
							<path style="fill:#363E44;" d="M762.242,980.966c-0.215,0-0.433-0.032-0.65-0.099c-1.163-0.359-1.815-1.593-1.458-2.757
								l8.247-26.749c0.36-1.163,1.587-1.817,2.758-1.457c1.163,0.359,1.815,1.593,1.458,2.757l-8.247,26.749
								C764.057,980.357,763.185,980.966,762.242,980.966z"/>
						</g>
						<path style="fill:#363E44;" d="M876.677,945.284c-1.083,0-2.026-0.797-2.181-1.898l-20.442-145.263
							c-0.17-1.206,0.67-2.321,1.875-2.491c1.219-0.171,2.321,0.672,2.491,1.876l20.442,145.263c0.17,1.206-0.67,2.321-1.875,2.491
							C876.882,945.276,876.778,945.284,876.677,945.284z"/>
						<path style="fill:#363E44;" d="M820.947,949.972c-1.044,0-1.972-0.745-2.166-1.809l-27.584-150.771
							c-0.22-1.198,0.573-2.346,1.772-2.565c1.204-0.22,2.347,0.575,2.564,1.772l27.584,150.771c0.22,1.198-0.573,2.346-1.772,2.565
							C821.212,949.96,821.079,949.972,820.947,949.972z"/>
						<path style="fill:#363E44;" d="M753.718,880.852c-1.169,0-2.145-0.92-2.201-2.101c-0.056-1.217,0.883-2.249,2.099-2.306
							l230.507-10.8c1.217-0.058,2.248,0.883,2.306,2.099c0.056,1.217-0.883,2.249-2.099,2.305l-230.507,10.8
							C753.789,880.852,753.752,880.852,753.718,880.852z"/>
					</g>
				</g>
			</g>
		</g>
		<g>
			<g>
				
					<rect x="1597.866" y="667.692" transform="matrix(-0.866 0.5 -0.5 -0.866 3395.4773 539.2534)" style="fill:#84524D;" width="55.252" height="113.688"/>
				<g>
					<path style="fill:#84524D;" d="M1541.93,708.217c12.241,15.657,65.032-1.206,65.032-1.206l40.748-45.015
						c7.987-26.794-7.258-54.99-34.052-62.977c-26.794-7.988-54.99,7.258-62.977,34.052
						C1550.681,633.071,1529.463,692.27,1541.93,708.217z"/>
					<path style="fill:#84524D;" d="M1552.453,647.489c0,0-17.858,10.2-18.256,14.18c-0.475,4.75,13.866,12.01,13.866,12.01
						S1552.081,647.416,1552.453,647.489z"/>
					<g>
						<path style="fill:#FFFFFF;" d="M1596.854,658.465c0,0-6.82-6.79-16.611-9.708c-2.083-0.621-3.123,17.22-0.864,16.866
							C1589.311,664.065,1596.854,658.465,1596.854,658.465z"/>
						<path style="fill:#363E44;" d="M1572.293,665.945c-13.196-0.956-23.227-10.942-23.227-10.942s11.365-8.436,24.561-7.48
							c2.311,0.168,4.517,0.623,6.596,1.242c2.752,5.552,2.257,11.911-0.835,16.854
							C1577.127,665.975,1574.742,666.123,1572.293,665.945z"/>
					</g>
					<path style="fill:#363E44;" d="M1559.603,688.159c-2.676,0-5.286-1.159-7.09-3.258c-0.792-0.923-0.687-2.315,0.237-3.109
						c0.922-0.791,2.315-0.69,3.109,0.235c1.262,1.469,3.273,2.067,5.103,1.527c1.772-0.521,3.122-2.044,3.441-3.88
						c0.209-1.2,1.356-2.004,2.549-1.797c1.199,0.208,2.002,1.349,1.796,2.549c-0.603,3.479-3.169,6.368-6.541,7.359
						C1561.349,688.037,1560.473,688.159,1559.603,688.159z"/>
				</g>
				<path style="fill:#363E44;" d="M1639.117,692.883c0,0,51.874-37.823,39.721-80.619c-12.153-42.796-91.612-28.217-118.182-10.167
					c-26.571,18.05-4.973,22.854,21.37,25.659c26.343,2.805,45.982,10.505,34.774,36.16
					C1616.8,663.917,1633.089,682.442,1639.117,692.883z"/>
				<ellipse style="fill:#84524D;" cx="1630.156" cy="666.43" rx="17.987" ry="19.41"/>
				<path style="fill:#363E44;" d="M1622.429,676.083c-0.047,0-0.095-0.001-0.142-0.004c-1.214-0.077-2.138-1.125-2.061-2.34
					c0.196-3.097,1.395-5.583,3.566-7.388c4.507-3.75,11.616-2.948,11.915-2.912c1.21,0.145,2.071,1.243,1.927,2.452
					c-0.144,1.207-1.227,2.073-2.448,1.926c-0.114-0.012-5.568-0.59-8.585,1.932c-1.21,1.012-1.856,2.408-1.974,4.268
					C1624.554,675.185,1623.583,676.083,1622.429,676.083z"/>
				<path style="fill:#363E44;" d="M1662.979,607.825c0,0,31.824-166.098,98.471-124.964
					C1818.67,518.177,1685.306,599.494,1662.979,607.825z"/>
				<path style="fill:#363E44;" d="M1665.166,606.701c0,0,144.629-141.425,178.336-70.73
					C1872.441,596.666,1688.444,611.804,1665.166,606.701z"/>
				<path style="fill:#363E44;" d="M1662.767,605.536c0,0-59.199-106.575-3.32-114.642
					C1707.422,483.968,1671.263,590.605,1662.767,605.536z"/>
				<path style="fill:#363E44;" d="M1668.309,602.17c0,0,137.807-49.783,122.809,27.086
					C1778.241,695.253,1683.976,620.127,1668.309,602.17z"/>
				<path style="fill:#363E44;" d="M1678.838,611.167c0,0,48.763,29.769,27.847,45.971
					C1688.727,671.048,1678.825,619.218,1678.838,611.167z"/>
			</g>
			<g>
				<polygon style="fill:#FFFFFF;" points="1729.177,1969.509 1616.869,1969.509 1595.365,2125.71 1764.48,2125.71 				"/>
				<polygon style="fill:#84524D;" points="1267.306,1724.688 1439.52,1724.688 1304.453,1971.466 1191.7,1971.466 				"/>
				<polygon style="fill:#84524D;" points="1629.197,1724.688 1782.15,1724.688 1719.857,1969.509 1623.041,1969.509 				"/>
				<path style="fill:#FFFFFF;" d="M1331.889,2125.793h-324.835c0,0,56.982-149.205,184.646-154.259l112.753-0.068
					L1331.889,2125.793z"/>
				<polygon style="fill:#363E44;" points="1769.259,1003.311 1846.581,1765.229 1618.371,1765.229 1608.875,1227.741 
					1470.376,1765.229 1246.191,1765.229 1500.679,991.983 				"/>
				<g>
					<path style="fill:#84524D;" d="M1648.444,2062.697c-2.976,0-5.958-0.663-8.778-1.995c-6.102-2.881-10.271-8.346-11.442-14.992
						c-1.169-6.645,0.887-13.204,5.637-17.995c4.75-4.79,11.287-6.902,17.951-5.787l51.04,8.544
						c0.922,0.154,1.645,0.872,1.809,1.792c0.161,0.92-0.276,1.843-1.087,2.302l-45.061,25.449
						C1655.351,2061.8,1651.904,2062.697,1648.444,2062.697z M1648.349,2026.048c-4.248,0-8.281,1.67-11.358,4.771
						c-3.729,3.762-5.342,8.91-4.425,14.126c0.919,5.217,4.192,9.507,8.983,11.769c4.791,2.262,10.18,2.064,14.792-0.54
						l39.635-22.384l-44.893-7.515C1650.166,2026.124,1649.253,2026.048,1648.349,2026.048z"/>
					<path style="fill:#84524D;" d="M1756.863,2043.617c-1.152,0-2.315-0.096-3.482-0.292l-51.04-8.543
						c-0.922-0.154-1.645-0.873-1.809-1.792c-0.161-0.921,0.276-1.843,1.087-2.302l45.059-25.45
						c5.88-3.32,12.747-3.569,18.849-0.686c6.102,2.882,10.271,8.346,11.44,14.991c1.169,6.645-0.887,13.204-5.637,17.995
						C1767.411,2041.49,1762.276,2043.617,1756.863,2043.617z M1709.216,2031.462l44.893,7.514
						c5.213,0.872,10.359-0.781,14.088-4.542c3.731-3.761,5.344-8.91,4.425-14.127c-0.915-5.217-4.188-9.506-8.979-11.768
						c-4.789-2.264-10.182-2.067-14.794,0.538L1709.216,2031.462z"/>
				</g>
				
					<rect x="1595.365" y="2125.71" transform="matrix(-1 -1.224647e-16 1.224647e-16 -1 3359.8455 4275.9121)" style="fill:#E6D0BE;" width="169.116" height="24.491"/>
				
					<rect x="1007.054" y="2125.71" transform="matrix(-1 -1.224647e-16 1.224647e-16 -1 2338.9436 4275.9121)" style="fill:#E6D0BE;" width="324.835" height="24.491"/>
				<path style="fill:#FFFFFF;" d="M1613.933,1228.61c-0.999,0-1.903-0.683-2.142-1.697c-0.282-1.185,0.452-2.373,1.636-2.654
					l60.406-14.316c1.18-0.281,2.373,0.453,2.653,1.637c0.282,1.185-0.452,2.373-1.636,2.654l-60.406,14.316
					C1614.273,1228.591,1614.101,1228.61,1613.933,1228.61z"/>
				<g>
					<path style="fill:#84524D;" d="M1187.606,1973.764c-0.196,0-0.394-0.026-0.59-0.081l-49.858-13.867
						c-6.502-1.808-11.536-6.489-13.812-12.84c-2.276-6.352-1.361-13.164,2.511-18.69c3.874-5.526,9.965-8.711,16.713-8.739
						c0.028,0,0.06,0,0.088,0c6.714,0,12.794,3.131,16.695,8.6l30.049,42.133c0.543,0.761,0.547,1.78,0.011,2.546
						C1188.993,1973.423,1188.312,1973.764,1187.606,1973.764z M1142.657,1923.955c-0.024,0-0.047,0-0.071,0.001
						c-5.297,0.022-10.077,2.522-13.117,6.86c-3.04,4.338-3.759,9.685-1.972,14.672c1.787,4.987,5.738,8.66,10.841,10.08
						l43.853,12.197l-26.43-37.058C1152.699,1926.414,1147.926,1923.955,1142.657,1923.955z"/>
					<path style="fill:#84524D;" d="M1232.736,2023.698c-6.714,0-12.794-3.131-16.695-8.6l-30.049-42.133
						c-0.543-0.761-0.547-1.78-0.011-2.546c0.536-0.765,1.496-1.109,2.396-0.858l49.858,13.867
						c6.502,1.808,11.537,6.488,13.812,12.841c2.276,6.352,1.361,13.164-2.51,18.69c-3.874,5.526-9.965,8.711-16.713,8.739
						C1232.796,2023.698,1232.764,2023.698,1232.736,2023.698z M1193.202,1975.479l26.43,37.058
						c3.075,4.312,7.911,6.739,13.175,6.751c5.297-0.022,10.079-2.523,13.117-6.86c3.04-4.338,3.759-9.685,1.972-14.672
						s-5.738-8.661-10.841-10.08L1193.202,1975.479z"/>
				</g>
			</g>
			<g>
				<g>
					<path style="fill:#84524D;" d="M1277.837,1038.677c0,0-91.221,72.331-136.87,114.083
						c-47.942,43.849-112.339,115.569-102.19,124.449c5.781,5.058,16.586-2.908,44.05-26.119
						c-0.215,2.562,0.587,10.083,6.718,13.895c9.073,5.641,16.11-0.039,16.94-0.298c-0.143,0.863-1.43,10.201,4.004,15.005
						c6.121,5.411,13.208,5.361,19.008,2.627c-0.289,2.152-0.549,10.199,4.81,14.663c5.512,4.591,14.6,5.382,20.048,0.249
						c9.995-9.417,39.161-37.971,55.05-50.138c31.265-23.942,153.705-94.062,189.746-140.608
						C1350.808,1090.387,1277.837,1038.677,1277.837,1038.677z"/>
					<g>
						<path style="fill:#363E44;" d="M1160.188,1283.741c-0.493,0-0.988-0.165-1.4-0.502l-8.961-7.378
							c-0.941-0.774-1.074-2.164-0.299-3.104c0.771-0.938,2.162-1.075,3.103-0.3l8.961,7.377c0.939,0.774,1.074,2.163,0.302,3.103
							C1161.456,1283.467,1160.825,1283.741,1160.188,1283.741z"/>
						<path style="fill:#363E44;" d="M1138.9,1265.551c-0.469,0-0.943-0.15-1.346-0.459l-10.389-8.017
							c-0.963-0.744-1.141-2.128-0.398-3.092c0.743-0.963,2.123-1.144,3.094-0.399l10.389,8.017
							c0.962,0.744,1.141,2.129,0.398,3.093C1140.213,1265.256,1139.561,1265.551,1138.9,1265.551z"/>
						<path style="fill:#363E44;" d="M1115.233,1247.979c-0.493,0-0.99-0.165-1.402-0.504c-1.649-1.36-3.148-2.578-4.646-3.794
							c-1.535-1.248-3.07-2.495-4.763-3.89c-0.939-0.775-1.072-2.164-0.297-3.104s2.164-1.073,3.105-0.297
							c1.682,1.388,3.208,2.627,4.735,3.868c1.507,1.223,3.014,2.448,4.674,3.815c0.939,0.775,1.072,2.164,0.297,3.104
							C1116.501,1247.706,1115.87,1247.979,1115.233,1247.979z"/>
						<path style="fill:#363E44;" d="M1097.176,1231.664c-0.547,0-1.096-0.202-1.522-0.61l-8.333-7.961
							c-0.881-0.841-0.913-2.237-0.071-3.118c0.84-0.88,2.237-0.913,3.116-0.071l8.333,7.961c0.881,0.841,0.913,2.237,0.071,3.118
							C1098.337,1231.436,1097.758,1231.664,1097.176,1231.664z"/>
					</g>
				</g>
				<g>
					<path style="fill:#FFFFFF;" d="M1495.695,809.609c-74.854,1.505-328.981,294.55-328.981,294.55l107.519,124.986
						l314.174-253.906C1588.407,975.239,1543.138,808.655,1495.695,809.609z"/>
				</g>
				<path style="fill:#FFFFFF;" d="M1826.697,711.231c0,0-99.37,3.646-331.002,98.378l-67.086,344.687l55.435,18.73l18.043-80.922
					l38.306,85.839c0,0,204.487-42.809,371.995-119c0,0-61.891-160.695-121.346-241.463L1826.697,711.231z"/>
				<g>
					<path style="fill:#FFFFFF;" d="M2094.056,955.636c0,0-38.075-245.362-267.359-244.405l-95.111,25.482l67.766,200.9
						L2094.056,955.636z"/>
					<g>
						
							<ellipse transform="matrix(0.7071 -0.7071 0.7071 0.7071 -162.985 1694.7698)" style="fill:#EFBC73;" cx="1964.276" cy="1044.125" rx="153.839" ry="153.839"/>
						
							<ellipse transform="matrix(0.7071 -0.7071 0.7071 0.7071 -162.985 1694.7698)" style="fill:#E0AA63;" cx="1964.276" cy="1044.125" rx="108.78" ry="108.78"/>
						<path style="fill:#FFFFFF;" d="M1935.979,1228.465c-86.042,0-156.043-70.001-156.043-156.043
							c0-86.043,70.001-156.044,156.043-156.044c86.042,0,156.042,70.001,156.042,156.044
							C2092.021,1158.464,2022.021,1228.465,1935.979,1228.465z M1935.979,920.788c-83.611,0-151.633,68.023-151.633,151.634
							c0,83.611,68.022,151.634,151.633,151.634c83.611,0,151.633-68.023,151.633-151.634
							C2087.612,988.81,2019.59,920.788,1935.979,920.788z"/>
					</g>
					<path style="fill:#84524D;" d="M1937.361,1187.58c0,0-54.088,9.405-79.242-13.766c-25.154-23.171-22.13-58.346-16.353-63.148
						c5.777-4.802,26.196,37.719,26.196,37.719s-14.258-31.013-0.991-33.623c13.267-2.609,23.642,44.604,23.642,44.604
						s-8.927-35.623,4.833-35.461C1909.208,1124.068,1913.448,1177.745,1937.361,1187.58z"/>
					<path style="fill:#363E44;" d="M1441.253,1091.545c-0.14,0-0.282-0.013-0.424-0.041c-1.195-0.233-1.974-1.39-1.742-2.586
						l30.764-158.066c0.233-1.196,1.384-1.974,2.586-1.743c1.195,0.233,1.974,1.39,1.742,2.586l-30.764,158.066
						C1443.21,1090.814,1442.286,1091.545,1441.253,1091.545z"/>
					<path style="fill:#363E44;" d="M1846.582,913.547c-0.766,0-1.511-0.4-1.918-1.113l-44.426-77.91
						c-0.379-0.667-0.386-1.485-0.015-2.158l22.214-40.249c0.59-1.065,1.929-1.454,2.997-0.865c1.066,0.588,1.453,1.93,0.866,2.995
						l-21.618,39.166l43.814,76.836c0.603,1.058,0.235,2.404-0.825,3.007C1847.327,913.453,1846.953,913.547,1846.582,913.547z"/>
				</g>
			</g>
		</g>
		<g>
			<g>
				<g>
					<rect x="353.323" y="1731.844" style="fill:#EFBC73;" width="563.612" height="417.934"/>
					<path style="fill:#E0AA63;" d="M492.78,2127.716c-1.219,0-2.205-0.987-2.205-2.205v-369.399c0-1.218,0.986-2.205,2.205-2.205
						c1.219,0,2.205,0.987,2.205,2.205v369.399C494.985,2126.729,493.999,2127.716,492.78,2127.716z"/>
					<path style="fill:#E0AA63;" d="M744.442,2127.716c-1.219,0-2.205-0.987-2.205-2.205v-245.754c0-1.218,0.986-2.205,2.205-2.205
						c1.219,0,2.205,0.987,2.205,2.205v245.754C746.647,2126.729,745.661,2127.716,744.442,2127.716z"/>
					<g>
						<path style="fill:#F7F1EB;" d="M797.855,1867.116c-0.575,0-1.139-0.224-1.561-0.647l-27.362-27.404l-22.698,22.733
							c-0.827,0.829-2.295,0.829-3.122,0l-23.463-23.497l-27.056,27.099c-0.631,0.631-1.578,0.82-2.405,0.479
							c-0.823-0.341-1.361-1.145-1.361-2.037v-126.458c0-1.218,0.986-2.205,2.205-2.205c1.219,0,2.205,0.987,2.205,2.205v121.13
							l24.852-24.891c0.827-0.829,2.295-0.829,3.122,0l23.463,23.497l22.699-22.733c0.827-0.829,2.295-0.829,3.122,0l25.157,25.196
							v-122.2c0-1.218,0.986-2.205,2.205-2.205c1.219,0,2.205,0.987,2.205,2.205v127.528c0,0.892-0.538,1.696-1.361,2.037
							C798.425,1867.061,798.139,1867.116,797.855,1867.116z"/>
					</g>
				</g>
				<g>
					<rect x="506.709" y="1461.704" style="fill:#E0AA63;" width="364.142" height="270.022"/>
					<path style="fill:#EFBC73;" d="M596.809,1718.252c-1.219,0-2.205-0.987-2.205-2.205v-238.664c0-1.218,0.986-2.205,2.205-2.205
						s2.205,0.987,2.205,2.205v238.664C599.014,1717.265,598.028,1718.252,596.809,1718.252z"/>
					<path style="fill:#EFBC73;" d="M759.406,1718.252c-1.219,0-2.205-0.987-2.205-2.205v-158.779c0-1.218,0.986-2.205,2.205-2.205
						s2.205,0.987,2.205,2.205v158.779C761.611,1717.265,760.625,1718.252,759.406,1718.252z"/>
					<g>
						<path style="fill:#F7F1EB;" d="M793.915,1549.882c-0.575,0-1.139-0.224-1.561-0.647l-17.126-17.152l-14.112,14.134
							c-0.827,0.829-2.291,0.829-3.122,0l-14.607-14.628l-16.928,16.955c-0.631,0.631-1.583,0.82-2.403,0.479
							c-0.825-0.341-1.363-1.145-1.363-2.037v-81.703c0-1.218,0.986-2.205,2.205-2.205c1.219,0,2.205,0.987,2.205,2.205v76.375
							l14.723-14.747c0.827-0.829,2.291-0.829,3.122,0l14.607,14.628l14.112-14.134c0.827-0.829,2.295-0.829,3.122,0l14.921,14.944
							v-77.066c0-1.218,0.986-2.205,2.205-2.205s2.205,0.987,2.205,2.205v82.394c0,0.892-0.538,1.696-1.361,2.037
							C794.485,1549.827,794.199,1549.882,793.915,1549.882z"/>
					</g>
				</g>
			</g>
			<g>
				<g>
					<g>
						<polygon style="fill:#8B865C;" points="603.158,2146.677 1149.9,2146.677 1064.622,1674.491 709.54,1674.491 						"/>
					</g>
					<path style="fill:#F7F1EB;" d="M833.175,2108.291c-0.997,0-1.901-0.681-2.142-1.694
						c-16.411-68.827-98.214-412.479-97.075-418.672c0.222-1.196,1.374-1.991,2.567-1.769c1.128,0.207,1.895,1.237,1.798,2.356
						c0.403,9.784,63.585,276.921,96.999,417.063c0.282,1.184-0.448,2.374-1.632,2.656
						C833.517,2108.271,833.345,2108.291,833.175,2108.291z"/>
					<path style="fill:#F7F1EB;" d="M628.013,2129.001c-0.769,0-1.514-0.401-1.921-1.117c-0.601-1.059-0.228-2.405,0.831-3.006
						l90.835-51.555v-373.98c0-1.218,0.986-2.205,2.205-2.205c1.219,0,2.205,0.987,2.205,2.205v375.264
						c0,0.793-0.426,1.526-1.117,1.917l-91.952,52.189C628.756,2128.908,628.381,2129.001,628.013,2129.001z"/>
				</g>
				<path style="fill:#776E42;" d="M798.246,1704.313c3.432,0,6.213-2.781,6.213-6.213v-89.88c0-21.013,17.094-38.107,38.107-38.107
					h75.383c21.012,0,38.107,17.094,38.107,38.107v89.88c0,3.432,2.781,6.213,6.213,6.213c3.432,0,6.213-2.781,6.213-6.213v-89.88
					c0-27.864-22.669-50.532-50.532-50.532h-75.383c-27.864,0-50.533,22.669-50.533,50.532v89.88
					C792.033,1701.532,794.814,1704.313,798.246,1704.313z"/>
			</g>
		</g>
	</g>
</g>
</svg>
